<svg width="82" height="140" viewBox="0 0 82 140" fill="none" xmlns="http://www.w3.org/2000/svg">
<path d="M40.893 48.2618C35.9367 46.8342 33.7809 45.1178 31.1234 40.3019V32.3421C28.3136 27.7402 26.8698 25.5042 24.4389 21.8947V13.9348C27.0865 7.57601 29.742 4.71576 36.7795 1H43.464C52.2477 3.27229 54.5523 6.40683 56.833 13.9348V21.8947C54.3428 27.1793 53.1319 29.3484 51.1769 32.3421V40.3019C48.878 45.1443 46.8511 47.1139 40.893 48.2618ZM40.893 48.2618V60.2017M40.893 60.2017C36.6847 61.3251 34.12 62.8396 32.1803 65.6741M40.893 60.2017C52.5011 60.7286 56.443 64.7286 59.1235 78.1114M29.0666 84.0813V72.639C30.0261 69.6706 30.9844 67.4215 32.1803 65.6741M29.0666 84.0813C24.9534 81.8713 22.7976 81.1573 19.297 81.0964C9.75414 81.8997 5.85794 84.691 1.30029 93.5337C0.913769 95.81 0.886275 96.923 1.30029 98.5086C2.5233 100.926 3.79875 102.788 5.35614 104.253M29.0666 84.0813C31.1704 88.682 33.0934 91.9065 35.663 95.0262M19.297 109.453H28.5524C33.0398 108.438 35.826 107.265 38.6279 105.218M19.297 109.453C17.0922 111.861 15.8986 113.278 14.1551 116.418C13.6712 120.112 13.6638 122.077 14.1551 125.373C15.3318 132.441 17.5777 135.191 23.9247 138.308C26.405 138.893 27.7517 138.853 30.095 138.308C31.5481 137.453 32.8469 136.635 34.0214 135.821M19.297 109.453C12.4671 108.445 8.38012 107.098 5.35614 104.253M42.4356 101.991H44.4924L44.7495 111.941M42.4356 101.991C41.0691 103.272 39.847 104.328 38.6279 105.218M42.4356 101.991L44.4924 100.001C47.6378 100.209 49.8428 100.516 54.7762 101.494M42.4356 101.991V96.5186M42.4356 101.991C39.6509 99.4164 37.4929 97.2479 35.663 95.0262M5.35614 104.253C26.2091 106.755 36.1852 106.303 38.6279 105.218M34.0214 135.821C39.2705 132.179 42.0374 128.59 45.0066 121.891M34.0214 135.821L44.7495 111.941M45.0066 121.891L44.7495 111.941M45.0066 121.891C48.4401 128.603 51.5796 130.995 58.8898 133.333C62.7378 133.8 64.5224 133.661 67.631 133.333C73.1408 130.75 75.4853 128.846 77.9148 124.378C78.0857 122.241 78.0789 121.043 77.9148 118.906C77.5156 118.009 77.1245 117.184 76.7323 116.418M67.1168 105.971C62.2391 103.783 59.5258 102.719 54.7762 101.494M67.1168 105.971C71.8115 109.185 74.2912 111.652 76.7323 116.418M67.1168 105.971C74.8794 102.547 78.5825 99.9607 81 91.0462V84.0813C79.3772 79.5733 77.7108 77.5552 72.2587 75.6239C70.8929 75.4582 69.7756 75.3719 68.6594 75.3576M54.7762 101.494C63.594 108.621 68.4555 112.179 76.7323 116.418M42.4356 96.5186C45.191 92.9904 46.308 89.0562 55.2049 84.8562C64.1017 80.6562 63.9156 80.2016 68.6594 75.3576M42.4356 96.5186C46.0865 87.8603 49.8821 83.1669 59.1235 78.1114M68.6594 75.3576C67.2731 75.3399 65.8886 75.4333 64.0317 75.6239C62.2398 76.4745 60.6111 77.2976 59.1235 78.1114M32.1803 65.6741C33.3789 71.3236 33.9216 75.1264 33.9216 80.3501C33.9216 85.5738 34.2149 89.2963 35.663 95.0262" stroke="black" stroke-width="2"/>
</svg>
