<svg xmlns="http://www.w3.org/2000/svg" version="1.0" width="1080.000000pt" height="1080.000000pt" viewBox="0 0 600 600" preserveAspectRatio="xMidYMid meet">
    <g transform="translate(-240.000000,900.000000) scale(0.100000,-0.100000)" fill="#000000" stroke="none">
      <path d="M3955 8032 c-3 -3 -5 -112 -5 -242 l0 -237 -37 -24 c-61 -40 -78 -72 -78 -143 0 -52 5 -69 28 -102 18 -27 27 -53 27 -78 0 -56 27 -106 67 -122 31 -14 33 -17 33 -67 0 -50 -2 -53 -37 -72 -50 -27 -78 -84 -78 -158 0 -47 -2 -56 -15 -51 -125 52 -281 -49 -255 -166 8 -38 77 -98 122 -106 27 -5 33 -10 27 -23 -32 -74 -37 -103 -25 -155 23 -103 118 -154 195 -106 35 21 84 83 100 125 8 19 9 19 24 -5 44 -66 112 -97 185 -86 83 14 128 57 129 125 0 46 -13 74 -60 124 -20 20 -31 37 -25 37 6 0 26 12 43 26 89 75 95 225 10 269 -33 17 -102 20 -130 5 -15 -8 -19 -5 -25 17 -16 65 -98 143 -149 143 -13 0 -16 11 -16 55 0 50 2 56 29 70 41 21 61 53 61 96 0 22 12 60 30 93 40 77 46 117 25 171 -20 54 -63 92 -122 108 l-45 12 6 64 c7 79 42 142 105 186 l43 30 404 3 405 3 -3 -1261 c-2 -707 1 -1250 6 -1238 47 126 103 216 186 298 l60 60 0 1070 0 1070 390 0 c431 0 433 0 498 -63 32 -31 62 -76 62 -95 0 -5 -19 -15 -42 -22 -211 -66 -398 -249 -477 -467 -58 -156 -66 -376 -21 -513 56 -170 132 -255 435 -492 723 -567 750 -589 836 -696 71 -88 147 -238 180 -357 45 -158 28 -336 -51 -550 -81 -219 -96 -252 -172 -366 l-78 -116 -62 -12 c-82 -16 -198 -46 -442 -115 -109 -31 -253 -65 -320 -77 -229 -40 -436 -16 -585 67 -68 37 -59 22 14 -25 222 -144 441 -167 790 -85 134 32 330 93 398 123 98 45 179 61 334 65 216 5 359 -19 463 -75 l35 -20 -35 30 c-79 67 -237 126 -353 132 -26 2 -47 6 -47 9 0 4 20 21 44 39 174 124 331 345 381 536 77 294 15 633 -162 896 -51 76 -169 212 -204 237 -10 7 -19 20 -19 28 0 23 13 16 35 -18 36 -56 69 -73 144 -73 58 0 73 4 103 27 73 56 72 131 -3 213 l-39 42 31 14 c38 15 85 85 94 140 8 47 -8 99 -40 129 -28 26 -100 37 -144 22 -26 -9 -31 -8 -31 5 0 26 -48 100 -79 122 -16 12 -43 24 -60 27 -30 6 -31 8 -31 60 0 48 3 56 24 64 42 16 63 48 70 106 4 32 18 76 36 108 33 58 38 107 16 159 -16 40 -69 86 -107 94 l-29 6 0 167 c0 92 -3 215 -7 273 l-6 107 -78 0 c-42 0 -130 10 -196 22 -92 16 -160 21 -305 22 l-188 1 0 166 0 167 -92 -24 c-165 -41 -229 -44 -1020 -44 -798 0 -881 4 -1056 48 -40 10 -74 16 -77 14z m2578 -477 c189 -40 329 -156 377 -313 28 -90 27 -128 -4 -136 -66 -17 -124 -111 -113 -182 4 -20 18 -54 32 -75 14 -22 28 -61 31 -87 9 -72 22 -99 60 -117 32 -15 34 -18 34 -68 -1 -47 -4 -54 -32 -72 -54 -35 -72 -68 -76 -146 -4 -61 -7 -69 -21 -63 -35 16 -104 16 -146 -1 -41 -15 -87 -56 -98 -87 -5 -16 -12 -11 -337 245 -270 214 -320 265 -367 377 -25 59 -27 77 -28 190 0 104 4 136 23 190 57 166 207 303 378 344 77 19 202 19 287 1z m-2454 -42 c74 -56 88 -129 43 -214 -17 -31 -33 -73 -37 -95 -12 -76 -16 -84 -45 -99 -69 -36 -116 -2 -130 94 -6 40 -18 76 -34 100 -33 47 -35 120 -6 169 41 66 148 89 209 45z m2967 -442 c65 -40 84 -152 35 -217 -13 -19 -26 -55 -31 -95 -13 -92 -55 -126 -124 -99 -32 12 -46 39 -52 97 -2 26 -17 68 -34 98 -48 83 -38 152 30 209 26 21 42 26 88 26 38 0 67 -6 88 -19z m-2940 -175 c23 -24 45 -58 49 -74 6 -28 0 -37 -63 -99 -41 -40 -75 -84 -83 -106 -7 -20 -18 -36 -24 -34 -25 8 -45 73 -45 147 0 41 -5 95 -11 120 -10 42 -9 46 16 67 19 17 39 23 72 23 42 0 51 -4 89 -44z m-187 -151 c0 -55 -3 -73 -9 -59 -14 36 -23 112 -15 141 12 48 25 4 24 -82z m296 25 c-11 -10 -48 -37 -83 -60 -48 -31 -60 -35 -52 -19 12 21 125 99 144 99 6 0 2 -9 -9 -20z m118 0 c37 -30 51 -79 37 -132 -16 -57 -46 -97 -85 -114 -29 -12 -38 -10 -94 12 -35 14 -85 26 -112 27 -27 1 -49 7 -49 12 0 30 48 80 122 128 46 29 89 61 97 70 18 23 53 21 84 -3z m-477 -55 c14 -9 36 -42 50 -73 14 -31 37 -70 52 -85 22 -23 24 -29 12 -37 -29 -19 -85 -23 -159 -11 -42 6 -95 11 -118 11 -48 0 -73 25 -73 73 0 104 147 180 236 122z m270 -200 c19 -8 61 -34 92 -59 31 -24 72 -51 89 -60 87 -44 26 -155 -89 -163 -65 -5 -112 17 -145 66 -20 30 -23 47 -23 132 0 111 3 115 76 84z m131 -38 c37 -26 62 -57 46 -57 -7 0 -143 100 -143 106 0 8 56 -21 97 -49z m-427 9 l65 -14 -70 0 c-40 -1 -83 5 -100 13 l-30 13 35 1 c19 0 64 -6 100 -13z m190 -24 c0 -21 -64 -175 -109 -262 -11 -22 -77 -25 -108 -5 -59 39 -81 156 -40 216 21 31 28 35 89 41 36 3 85 15 109 26 51 22 59 20 59 -16z m3035 7 c76 -67 84 -121 24 -162 -44 -30 -98 -101 -115 -150 l-11 -32 -21 35 c-23 37 -28 66 -37 212 -5 92 -4 97 17 112 12 9 42 16 65 16 33 0 50 -7 78 -31z m-173 -162 c5 -90 -3 -96 -21 -15 -11 46 -4 125 9 111 4 -4 10 -48 12 -96z m-2867 25 c-10 -26 -27 -60 -38 -75 -36 -52 -31 -18 8 64 41 84 60 91 30 11z m3155 -10 c-13 -9 -51 -34 -84 -56 l-61 -39 38 40 c36 38 116 87 126 77 3 -2 -6 -12 -19 -22z m136 -6 c39 -39 44 -82 19 -143 -19 -45 -41 -70 -78 -90 -26 -13 -33 -12 -94 13 -37 14 -88 27 -115 28 -26 0 -48 2 -48 4 0 2 7 17 17 35 18 36 27 44 103 94 30 20 70 49 88 65 43 37 67 35 108 -6z m-500 -37 c35 -17 45 -28 58 -67 9 -26 30 -64 47 -85 21 -26 28 -42 21 -49 -15 -15 -84 -21 -146 -13 -46 5 -69 16 -126 58 -38 29 -70 59 -70 67 1 31 50 75 107 96 51 18 60 17 109 -7z m289 -208 c22 -10 65 -38 96 -62 31 -24 71 -52 88 -61 22 -12 31 -24 31 -43 0 -66 -59 -115 -139 -115 -57 0 -104 22 -132 61 -21 30 -24 45 -24 137 -1 116 2 119 80 83z m119 -29 c21 -15 46 -38 55 -52 l16 -25 -30 19 c-26 16 -96 70 -130 98 -22 19 53 -15 89 -40z m-234 -22 c0 -36 -28 -110 -42 -110 -5 0 -37 21 -70 47 l-60 47 66 17 c37 8 72 21 78 27 16 16 28 5 28 -28z m-160 20 c22 -7 21 -8 -12 -9 -20 -1 -40 4 -43 9 -7 12 19 12 55 0z m165 -129 c-4 -17 -11 -31 -16 -31 -12 0 -11 14 3 45 15 32 22 25 13 -14z"/>
      <path d="M5138 5507 c-26 -39 -67 -115 -92 -167 -134 -284 -151 -561 -50 -843 45 -123 172 -357 195 -357 4 0 25 28 47 63 137 214 200 398 209 612 8 196 -30 362 -129 560 -40 79 -118 205 -128 205 -3 0 -26 -33 -52 -73z" fill="#B1164F"/>
      <path d="M4390 5243 c0 -438 205 -797 573 -1003 l59 -33 -47 92 c-111 221 -160 467 -136 670 11 92 11 94 -11 118 -37 40 -224 161 -313 202 -136 64 -125 68 -125 -46z" fill="#EE0E64"/>
      <path d="M5843 5275 c-71 -35 -168 -95 -218 -133 l-90 -68 5 -65 c8 -109 4 -291 -10 -354 -22 -106 -71 -247 -121 -348 l-49 -97 43 21 c77 39 201 132 278 209 148 148 235 315 284 545 21 99 33 355 17 355 -6 0 -69 -29 -139 -65z" fill="#EE0E64"/>
      <path d="M4045 4660 c-87 -13 -205 -42 -211 -52 -11 -17 48 -91 161 -203 189 -190 371 -289 598 -325 85 -14 365 -9 406 7 21 9 16 13 -65 59 -209 117 -380 278 -476 449 -22 39 -42 61 -58 66 -33 9 -292 9 -355 -1z" fill="#B1164F"/>
      <path d="M5983 4662 c-13 -4 -42 -39 -70 -84 -116 -187 -278 -333 -501 -453 -50 -27 -52 -30 -30 -38 40 -16 323 -21 402 -7 225 38 402 129 575 295 115 109 207 226 188 236 -7 5 -56 18 -108 30 -71 16 -136 22 -264 25 -93 2 -180 0 -192 -4z" fill="#B1164F"/>
      <path d="M3360 4120 c-36 -5 -85 -13 -110 -20 -61 -16 -177 -74 -220 -110 l-35 -30 50 24 c129 60 251 79 413 64 130 -11 234 -34 457 -98 451 -129 634 -154 833 -115 87 18 257 97 312 145 l35 31 -55 -30 c-30 -16 -91 -42 -135 -58 -75 -26 -90 -27 -250 -27 -194 0 -270 14 -635 119 -314 90 -513 121 -660 105z"/>
    </g>
  </svg>
  